<svg xmlns="http://www.w3.org/2000/svg" viewBox="0 0 98 98"><title>behanceIcon</title><path d="M71.5,44.2c-4.2.3-7.9,4.1-7.4,7.9H80.6C80.4,47.1,76.7,43.8,71.5,44.2Z" style="fill:#9ad0f0"/><path d="M30.2,44.5a14.1,14.1,0,0,0,4.1-.7,5.6,5.6,0,0,0,2.4-8.7,3.6,3.6,0,0,0-2.1-1.3,30.7,30.7,0,0,0-5.3-.7c-3-.1-6,0-9,0H19.2V44.5h.6C23.3,44.5,26.7,44.6,30.2,44.5Z" style="fill:#9ad0f0"/><path d="M93,0H5A5,5,0,0,0,0,5V93a5,5,0,0,0,5,5H93a5,5,0,0,0,5-5V5A5,5,0,0,0,93,0ZM61.8,26.2H82.6v5.1H61.8ZM42.6,73.5a16.9,16.9,0,0,1-8.4,2.3c-5,.2-10,.2-15,.2H7.2V24c8.2,0,16.4-.1,24.5,0a36.1,36.1,0,0,1,6.6.8,12.9,12.9,0,0,1,9,17.6,10,10,0,0,1-4.4,5.1,4.7,4.7,0,0,0-.9.6c.9.5,1.8.9,2.7,1.5a11.5,11.5,0,0,1,5,8.4A15.6,15.6,0,0,1,42.6,73.5Zm48.2-15h-27c-.2,5.3,3.3,8.8,7.6,9.2a10.4,10.4,0,0,0,5.5-.8A7.6,7.6,0,0,0,80,64.1a1.1,1.1,0,0,1,.9-.6h9.5a30,30,0,0,1-1.5,3.6,16.1,16.1,0,0,1-9.2,7.4,22,22,0,0,1-16.5-1.1,15.3,15.3,0,0,1-8.8-11.6,27.5,27.5,0,0,1,.8-14.5c2.4-6.5,7.3-10,14.1-11a20.8,20.8,0,0,1,10.8,1.1c6,2.5,9.1,7.2,10.3,13.3a28.9,28.9,0,0,0,.4,2.9Z" style="fill:#9ad0f0"/><path d="M33.1,53.3,19.3,53V66.9H32.2A6.3,6.3,0,0,0,36.9,65c2.2-2.3,2.4-5.1,1.6-7.9S35.5,53.5,33.1,53.3Z" style="fill:#9ad0f0"/></svg>