<svg xmlns="http://www.w3.org/2000/svg" viewBox="0 0 596.8 570.2"><title>fpwlLogo</title><path d="M142.3,0H126.4A76.8,76.8,0,0,0,49.5,76.8v54.8H21.6A21.6,21.6,0,0,0,0,153.2v76.4a21.6,21.6,0,0,0,21.6,21.6H49.5V390.6a21.7,21.7,0,0,0,21.7,21.6h0a21.6,21.6,0,0,0,21.6-21.6v-161A21.6,21.6,0,0,0,71.2,208H43.3V174.8H71.2a21.6,21.6,0,0,0,21.6-21.6h0V76.8a33.6,33.6,0,0,1,27.8-33V71.2a21.7,21.7,0,0,0,43.3,0V21.6A21.6,21.6,0,0,0,142.3,0Z" style="fill:#fff"/><path d="M195.9,208.7h-63a21.6,21.6,0,0,0-21.6,21.6h0a21.6,21.6,0,0,0,21.6,21.6h63A58.1,58.1,0,0,1,254,310h0a58.1,58.1,0,0,1-57.9,58.1H159a20.9,20.9,0,0,0-5.1-.7,21.7,21.7,0,0,0-21.6,21.7V548.6a21.6,21.6,0,1,0,43.2,0V411.4h21A101.3,101.3,0,0,0,297.3,310h0A101.4,101.4,0,0,0,195.9,208.7Z" style="fill:#fff"/><path d="M575.2,1.7H525.7a21.7,21.7,0,1,0,0,43.3h27.9V390.6a21.6,21.6,0,1,0,43.2,0V23.4A21.6,21.6,0,0,0,575.2,1.7Z" style="fill:#fff"/><path d="M465.2,400.9a14.3,14.3,0,0,0,1.2-2.1L532.5,239a21.1,21.1,0,0,0,2.3-9.4,21.7,21.7,0,0,0-13.3-20h-.3a23.8,23.8,0,0,0-3.8-1.1l-2-.2-2.2-.2H463.6a21.6,21.6,0,0,0,0,43.2h17.3l-35.6,86.1-.4-.7-9.8-21a4.1,4.1,0,0,0-.5-.9l-1.2-2.1-1.2-1.5a11.4,11.4,0,0,0-1.5-1.7l-1.5-1.4-1.7-1.2a11.8,11.8,0,0,0-1.9-1.1l-.9-.6-.9-.3-2.1-.7-2-.6-2.1-.2-2.1-.2-2.1.2-2,.2-2,.6a12.9,12.9,0,0,0-2.1.7l-.9.3-.9.6-2,1.1-1.7,1.2-1.5,1.4-1.5,1.7-1.1,1.5a23.9,23.9,0,0,0-1.3,2.1,4.1,4.1,0,0,1-.5.9l-9.8,21v.3l-35.5-85.6h17.2a21.7,21.7,0,0,0,0-43.3H318.1l-1.7.2-2.4.2a26.4,26.4,0,0,0-4,1.2h-.1a21.5,21.5,0,0,0-7.1,4.7l-.9,1.1-1.8,2.2-.5.9a24.4,24.4,0,0,0-1.4,2.8c-.1.1-.1.3-.2.5a18.5,18.5,0,0,0-1.1,4.2,19.7,19.7,0,0,0-.4,3.5h0a7.8,7.8,0,0,0,.2,1.6,11,11,0,0,0,.2,2.6,20.4,20.4,0,0,0,1.1,3.5,1.4,1.4,0,0,0,.2.6h0l66.2,159.8.3.6v.3c0,.1.1.2.1.3a39,39,0,0,0,1.9,3.5h.1a22.2,22.2,0,0,0,8.7,7.6,21.8,21.8,0,0,0,27.2-7.8c0-.1.1-.1.1-.2a20.7,20.7,0,0,0,1.5-2.5l9.8-21,1.3-2.9,1.4,2.9,9.8,21a21.7,21.7,0,0,0,28.7,10.5,17.8,17.8,0,0,0,2.7-1.7h.3a15.9,15.9,0,0,0,2.4-2l1.1-.9a10.9,10.9,0,0,0,1.3-1.7l1.4-1.8Z" style="fill:#fff"/></svg>