<svg xmlns="http://www.w3.org/2000/svg" viewBox="0 0 97.9 98"><title>githubIcon</title><path d="M97.9,5a5,5,0,0,0-5-5H4.9A5.1,5.1,0,0,0,0,4.5v89A5.1,5.1,0,0,0,4.9,98H34.8c.8-.4,1.1-1.1,1.1-2.3.1-2.9.1-5.8.1-8.7a2.8,2.8,0,0,0-.1-.9H34.7c-2.4,0-4.8.2-7.2,0A10.9,10.9,0,0,1,20,82.6c-1.5-1.5-2.2-3.5-3.2-5.3a13.3,13.3,0,0,0-4.6-5.4l-1.7-1.4c-.3-.3-.6-.8-.5-1.1a1.4,1.4,0,0,1,1.1-.6,7.3,7.3,0,0,1,6.6,2,44.2,44.2,0,0,1,3.9,4.7,11,11,0,0,0,4.7,3.6c3.1,1.3,6.1.8,9-.4a2.2,2.2,0,0,0,.9-1c.3-.6.3-1.3.6-1.9s1.5-2.9,2.3-4.4l-.8-.2c-2.7-.6-5.5-1.1-8.2-1.9a20,20,0,0,1-11.7-9.4,28.7,28.7,0,0,1-3.2-11.4c-.5-6.2.6-11.9,4.7-16.8a2,2,0,0,0,.3-2.1,19.7,19.7,0,0,1,.7-12,1.3,1.3,0,0,1,1.6-1.1l3.3.7a32.1,32.1,0,0,1,8.8,4.1,3.9,3.9,0,0,0,2.8.5,58.6,58.6,0,0,1,5.8-1,50.7,50.7,0,0,1,18.2,1,3.4,3.4,0,0,0,2.6-.4l5-2.8a16.5,16.5,0,0,1,7.2-2,1.5,1.5,0,0,1,1.6,1c1.1,3.1,1.8,6.3,1.1,9.5a7.5,7.5,0,0,0,1.4,7.1h.1a19.8,19.8,0,0,1,3.1,9.2A28.7,28.7,0,0,1,80.7,59a17.3,17.3,0,0,1-4.6,6.1,24.5,24.5,0,0,1-10.4,5l-6.4,1.3,1.1,1.4a13.8,13.8,0,0,1,2.3,7.6V94.5a7.1,7.1,0,0,0,.1,1.4A2.3,2.3,0,0,0,63.9,98h29a5,5,0,0,0,5-4.8Z" style="fill:#9ad0f0"/></svg>