<svg xmlns="http://www.w3.org/2000/svg" viewBox="0 0 98 98"><title>pinterestIcon</title><path d="M93,0H5A5,5,0,0,0,0,5V93a5,5,0,0,0,5,5H93a5,5,0,0,0,5-5V5A5,5,0,0,0,93,0ZM79.8,46.6a30.5,30.5,0,0,1-5.9,14.7c-4.3,5.7-10,8.8-17.1,8.8a12.4,12.4,0,0,1-10.9-5.3c-.7,3-1.6,5.8-2.2,8.7a42.4,42.4,0,0,1-8,16.7c-.4.4-.9,1-1.3,1s-.5-.9-.6-1.5a47.2,47.2,0,0,1,1.1-19.4c1.7-6.4,3.1-12.9,4.6-19.4a2.9,2.9,0,0,0-.1-1.3A16,16,0,0,1,39.3,38a9.4,9.4,0,0,1,3-4.3A7.1,7.1,0,0,1,46.7,32a5.6,5.6,0,0,1,5.8,5,14.6,14.6,0,0,1-.8,6.9c-.8,3.2-1.8,6.4-2.8,9.6-1.7,5.9,3.3,10.3,9,8.8a11.3,11.3,0,0,0,6-4,24.1,24.1,0,0,0,4.6-9.7,33.1,33.1,0,0,0,.9-12.1C68.3,29.3,64,24.8,57,23.2s-13.2-.7-19,3.5a20.7,20.7,0,0,0-7.7,20.8,10.7,10.7,0,0,0,2.4,4.6,2.5,2.5,0,0,1,.6,2.6,20.3,20.3,0,0,0-.8,3.1c-.4,1.4-1.2,1.8-2.5,1.2a13.1,13.1,0,0,1-7.5-8.6c-2.7-8.5-1.1-16.3,4.1-23.4S38,17,45.8,15.6a32.7,32.7,0,0,1,16.7,1c8.9,3.2,14.9,9.2,17.2,18.5C80.7,38.9,80.4,42.7,79.8,46.6Z" style="fill:#9ad0f0"/></svg>